<svg width="40" height="40" viewBox="0 0 40 40" fill="none" xmlns="http://www.w3.org/2000/svg">
<rect width="40" height="40" fill="white"/>
<rect x="12.5" y="16" width="22" height="10" fill="white"/>
<rect x="34.5" y="19" width="2" height="5" fill="white"/>
<rect x="30.5" y="26" width="5" height="1" fill="white"/>
<rect x="34.5" y="8" width="1" height="7" fill="white"/>
<rect x="35.5" y="9" width="1" height="5" fill="white"/>
<rect x="9.5" y="17" width="3" height="2" fill="white"/>
<rect x="11.5" y="25" width="4" height="2" fill="white"/>
<rect x="12.5" y="27" width="2" height="1" fill="white"/>
<rect x="10.5" y="8" width="8" height="9" fill="#754C3E"/>
<rect x="19.5" y="10" width="1" height="6" fill="#754C3E"/>
<rect x="18.5" y="9" width="1" height="8" fill="#754C3E"/>
<rect x="6.5" y="13" width="4" height="5" fill="#754C3E"/>
<rect x="8.5" y="9" width="1" height="1" fill="#521400"/>
<rect x="2.5" y="16" width="1" height="1" fill="#290B01"/>
<rect x="9.5" y="8" width="1" height="1" fill="#521400"/>
<rect x="20.5" y="15" width="1" height="1" fill="#290B01"/>
<rect x="15.5" y="7" width="1" height="1" fill="#521400"/>
<rect x="14.5" y="7" width="1" height="1" fill="#521400"/>
<rect x="13.5" y="7" width="1" height="1" fill="#521400"/>
<rect x="12.5" y="7" width="1" height="1" fill="#521400"/>
<rect x="11.5" y="7" width="1" height="1" fill="#521400"/>
<rect x="10.5" y="8" width="1" height="1" fill="#521400"/>
<rect x="9.5" y="9" width="1" height="1" fill="#521400"/>
<rect x="8.5" y="10" width="1" height="1" fill="#521400"/>
<rect x="7.5" y="11" width="1" height="1" fill="#521400"/>
<rect x="6.5" y="12" width="1" height="1" fill="#521400"/>
<rect x="5.5" y="13" width="1" height="1" fill="#521400"/>
<rect x="4.5" y="14" width="1" height="1" fill="#521400"/>
<rect x="3.5" y="15" width="1" height="1" fill="#290B01"/>
<rect x="2.5" y="17" width="1" height="1" fill="#290B01"/>
<rect x="11.5" y="22" width="1" height="1" fill="#754C3E"/>
<rect x="33.5" y="13" width="1" height="1" fill="#754C3E"/>
<rect x="21.5" y="26" width="1" height="1" fill="#754C3E"/>
<rect x="21.5" y="15" width="1" height="1" fill="#521400"/>
<rect x="25.5" y="26" width="1" height="1" fill="#754C3E"/>
<rect x="23.5" y="26" width="1" height="1" fill="#754C3E"/>
<rect x="26.5" y="26" width="1" height="1" fill="#754C3E"/>
<rect x="27.5" y="26" width="1" height="1" fill="#754C3E"/>
<rect x="28.5" y="25" width="1" height="1" fill="#5C3629"/>
<rect x="29.5" y="26" width="1" height="1" fill="#754C3E"/>
<rect x="31.5" y="28" width="1" height="1" fill="#754C3E"/>
<rect x="32.5" y="29" width="1" height="1" fill="#754C3E"/>
<rect x="32.5" y="30" width="1" height="1" fill="#521400"/>
<rect x="30.5" y="27" width="1" height="1" fill="#754C3E"/>
<rect x="33.5" y="31" width="1" height="1" fill="#521400"/>
<rect x="35.5" y="30" width="1" height="1" fill="#521400"/>
<rect x="34.5" y="31" width="1" height="1" fill="#521400"/>
<rect x="35.5" y="29" width="1" height="1" fill="#521400"/>
<rect x="35.5" y="28" width="1" height="1" fill="#521400"/>
<rect x="35.5" y="27" width="1" height="1" fill="#754C3E"/>
<rect x="35.5" y="26" width="1" height="1" fill="#754C3E"/>
<rect x="34.5" y="25" width="1" height="1" fill="#754C3E"/>
<rect x="34.5" y="24" width="1" height="1" fill="#754C3E"/>
<rect x="35.5" y="23" width="1" height="1" fill="#754C3E"/>
<rect x="36.5" y="22" width="1" height="1" fill="#754C3E"/>
<rect x="36.5" y="21" width="1" height="1" fill="#754C3E"/>
<rect x="36.5" y="20" width="1" height="1" fill="#3D1204"/>
<rect x="36.5" y="19" width="1" height="1" fill="#3D1204"/>
<rect x="36.5" y="18" width="1" height="1" fill="#3D1204"/>
<rect x="36.5" y="17" width="1" height="1" fill="#521400"/>
<rect x="35.5" y="16" width="1" height="1" fill="#521400"/>
<rect x="35.5" y="15" width="1" height="1" fill="#521400"/>
<rect x="35.5" y="14" width="1" height="1" fill="#754C3E"/>
<rect x="36.5" y="13" width="1" height="1" fill="#754C3E"/>
<rect x="36.5" y="12" width="1" height="1" fill="#754C3E"/>
<rect x="36.5" y="11" width="1" height="1" fill="#754C3E"/>
<rect x="36.5" y="10" width="1" height="1" fill="#754C3E"/>
<rect x="36.5" y="9" width="1" height="1" fill="#754C3E"/>
<rect x="35.5" y="8" width="1" height="1" fill="#754C3E"/>
<rect x="35.5" y="7" width="1" height="1" fill="#754C3E"/>
<rect x="34.5" y="7" width="1" height="1" fill="#754C3E"/>
<rect x="33.5" y="8" width="1" height="1" fill="#754C3E"/>
<rect x="33.5" y="9" width="1" height="1" fill="#754C3E"/>
<rect x="33.5" y="10" width="1" height="1" fill="#754C3E"/>
<rect x="33.5" y="11" width="1" height="1" fill="#754C3E"/>
<rect x="33.5" y="12" width="1" height="1" fill="#754C3E"/>
<rect x="33.5" y="14" width="1" height="1" fill="#754C3E"/>
<rect x="32.5" y="15" width="1" height="1" fill="#521400"/>
<rect x="31.5" y="16" width="1" height="1" fill="#521400"/>
<rect x="30.5" y="16" width="1" height="1" fill="#521400"/>
<rect x="29.5" y="16" width="1" height="1" fill="#521400"/>
<rect x="28.5" y="16" width="1" height="1" fill="#521400"/>
<rect x="27.5" y="16" width="1" height="1" fill="#521400"/>
<rect x="26.5" y="16" width="1" height="1" fill="#521400"/>
<rect x="25.5" y="16" width="1" height="1" fill="#521400"/>
<rect x="23.5" y="15" width="1" height="1" fill="#521400"/>
<rect x="22.5" y="15" width="1" height="1" fill="#521400"/>
<rect x="22.5" y="15" width="1" height="1" fill="#521400"/>
<rect x="21.5" y="15" width="1" height="1" fill="#521400"/>
<rect x="22.5" y="26" width="1" height="1" fill="#754C3E"/>
<rect x="22.5" y="26" width="1" height="1" fill="#754C3E"/>
<rect x="21.5" y="26" width="1" height="1" fill="#754C3E"/>
<rect x="20.5" y="26" width="1" height="1" fill="#754C3E"/>
<rect x="19.5" y="26" width="1" height="1" fill="#754C3E"/>
<rect x="18.5" y="26" width="1" height="1" fill="#754C3E"/>
<rect x="17.5" y="26" width="1" height="1" fill="#754C3E"/>
<rect x="16.5" y="25" width="1" height="1" fill="#5C3629"/>
<rect x="15.5" y="26" width="1" height="1" fill="#754C3E"/>
<rect x="14.5" y="27" width="1" height="1" fill="#754C3E"/>
<rect x="13.5" y="28" width="1" height="1" fill="#754C3E"/>
<rect x="12.5" y="29" width="1" height="1" fill="#754C3E"/>
<rect x="10.5" y="31" width="1" height="1" fill="#521400"/>
<rect x="9.5" y="31" width="1" height="1" fill="#521400"/>
<rect x="8.5" y="31" width="1" height="1" fill="#521400"/>
<rect x="7.5" y="30" width="1" height="1" fill="#521400"/>
<rect x="8.5" y="29" width="1" height="1" fill="#754C3E"/>
<rect x="10.5" y="26" width="1" height="1" fill="#754C3E"/>
<rect x="10.5" y="25" width="1" height="1" fill="#5C3629"/>
<rect x="11.5" y="24" width="1" height="1" fill="#754C3E"/>
<rect x="11.5" y="23" width="1" height="1" fill="#754C3E"/>
<rect x="11.5" y="21" width="1" height="1" fill="#754C3E"/>
<rect x="11.5" y="20" width="1" height="1" fill="#754C3E"/>
<rect x="11.5" y="19" width="1" height="1" fill="#754C3E"/>
<rect x="10.5" y="19" width="1" height="1" fill="#754C3E"/>
<rect x="9.5" y="19" width="1" height="1" fill="#754C3E"/>
<rect x="8.5" y="19" width="1" height="1" fill="#754C3E"/>
<rect x="7.5" y="19" width="1" height="1" fill="#754C3E"/>
<rect x="6.5" y="19" width="1" height="1" fill="#754C3E"/>
<rect x="5.5" y="18" width="1" height="1" fill="#754C3E"/>
<rect x="4.5" y="18" width="1" height="1" fill="#754C3E"/>
<rect x="14.5" y="11" width="1" height="1" fill="#521400"/>
<rect x="14.5" y="12" width="1" height="1" fill="#521400"/>
<rect x="14.5" y="13" width="1" height="1" fill="#521400"/>
<rect x="14.5" y="14" width="1" height="1" fill="#521400"/>
<rect x="15.5" y="14" width="1" height="1" fill="#521400"/>
<rect x="16.5" y="15" width="1" height="1" fill="#521400"/>
<rect x="16.5" y="16" width="1" height="1" fill="#290B01"/>
<rect x="17.5" y="17" width="1" height="1" fill="#290B01"/>
<rect x="18.5" y="17" width="1" height="1" fill="#290B01"/>
<rect x="2.5" y="15" width="1" height="1" fill="#290B01"/>
<rect x="20.5" y="14" width="1" height="1" fill="#290B01"/>
<rect x="20.5" y="13" width="1" height="1" fill="#521400"/>
<rect x="20.5" y="12" width="1" height="1" fill="#521400"/>
<rect x="20.5" y="11" width="1" height="1" fill="#521400"/>
<rect x="35.5" y="18" width="1" height="1" fill="#5C3629"/>
<rect x="6.5" y="18" width="3" height="1" fill="#FFFEED"/>
<rect x="33.5" y="29" width="2" height="2" fill="#FFFEED"/>
<rect x="32.5" y="28" width="3" height="1" fill="#FFFEED"/>
<rect x="31.5" y="27" width="4" height="1" fill="#FFFEED"/>
<rect x="11.5" y="27" width="1" height="3" fill="#FFFEED"/>
<rect x="12.5" y="28" width="1" height="1" fill="#FFFEED"/>
<rect x="9.5" y="27" width="2" height="4" fill="#FFFEED"/>
<rect x="9.5" y="29" width="1" height="2" fill="#FFFEED"/>
<rect x="8.5" y="30" width="1" height="1" fill="#FFFEED"/>
<rect x="19.5" y="12" width="1" height="4" fill="#5C3629"/>
<rect x="18.5" y="13" width="1" height="4" fill="#5C3629"/>
<rect x="17.5" y="14" width="1" height="3" fill="#5C3629"/>
<rect x="16.5" y="14" width="1" height="1" fill="#5C3629"/>
<rect x="7.5" y="12" width="1" height="1" fill="#754C3E"/>
<rect x="8.5" y="11" width="1" height="2" fill="#754C3E"/>
<rect x="9.5" y="10" width="1" height="3" fill="#754C3E"/>
<rect x="3.5" y="16" width="1" height="2" fill="#754C3E"/>
<rect x="4.5" y="15" width="1" height="3" fill="#754C3E"/>
<rect x="5.5" y="14" width="1" height="4" fill="#754C3E"/>
<rect x="33.5" y="15" width="2" height="4" fill="#5C3629"/>
<rect x="32.5" y="16" width="1" height="4" fill="#5C3629"/>
<rect x="35.5" y="18" width="1" height="1" fill="#5C3629"/>
<rect x="35.5" y="18" width="1" height="1" fill="#5C3629"/>
<rect x="35.5" y="18" width="1" height="1" fill="#5C3629"/>
<rect x="35.5" y="18" width="1" height="1" fill="#5C3629"/>
<rect x="35.5" y="18" width="1" height="1" fill="#5C3629"/>
<rect x="35.5" y="18" width="1" height="1" fill="#5C3629"/>
<rect x="35.5" y="18" width="1" height="1" fill="#5C3629"/>
<rect x="35.5" y="18" width="1" height="1" fill="#5C3629"/>
<rect x="35.5" y="18" width="1" height="1" fill="#5C3629"/>
<rect x="35.5" y="18" width="1" height="1" fill="#5C3629"/>
<rect x="35.5" y="18" width="1" height="1" fill="#5C3629"/>
<rect x="35.5" y="18" width="1" height="1" fill="#5C3629"/>
<rect x="35.5" y="17" width="1" height="2" fill="#5C3629"/>
<rect x="30.5" y="17" width="2" height="3" fill="#5C3629"/>
<rect x="27.5" y="17" width="3" height="3" fill="#754C3E"/>
<rect x="26.5" y="17" width="1" height="2" fill="#754C3E"/>
<rect x="30.5" y="17" width="2" height="1" fill="#754C3E"/>
<rect x="16.5" y="7" width="1" height="1" fill="#660000"/>
<rect x="24.5" y="26" width="1" height="1" fill="#754C3E"/>
<rect x="24.5" y="26" width="1" height="1" fill="#754C3E"/>
<rect x="24.5" y="15" width="1" height="1" fill="#521400"/>
<rect x="24.5" y="15" width="1" height="1" fill="#521400"/>
<rect x="20.5" y="10" width="1" height="1" fill="#521400"/>
<rect x="19.5" y="16" width="1" height="1" fill="#290B01"/>
<rect x="19.5" y="9" width="1" height="1" fill="#3D1204"/>
<rect x="18.5" y="8" width="1" height="1" fill="#521400"/>
<rect x="11.5" y="30" width="1" height="1" fill="#754C3E"/>
<rect x="9.5" y="28" width="1" height="1" fill="#754C3E"/>
<rect x="9.5" y="27" width="1" height="1" fill="#754C3E"/>
<rect x="9.5" y="12.5" width="1.2" height="2.2" fill="#290B01"/>
</svg>
